<svg overflow="hidden" preserveAspectRatio="none" viewBox="0 100 1280 550">
  <defs>
    <clipPath id="clip0">
      <path d="M0 0 1280 0 1280 720 0 720Z" fill-rule="evenodd" clip-rule="evenodd" />
    </clipPath>
  </defs>
  <g clip-path="url(#clip0)"><text fill="#111133" font-family="Arial,Arial_MSFontService,sans-serif" font-weight="900"
      font-size="48" transform="translate(80 329)">s<tspan x="29.3333" y="0">atoshi</tspan>
      <tspan fill="#FF9500" x="191.18" y="0">.btc</tspan>
    </text>
    <path
      d="M2.27397e-06-3 111.507-2.99992 111.507 3.00008-2.27397e-06 3ZM108.507-14.9999 138.507 0.000104987 108.507 15.0001Z"
      fill="#111133" transform="matrix(1 0 0 -1 396 313)" /><text fill="#FF9500"
      font-family="Arial,Arial_MSFontService,sans-serif" font-weight="900" font-size="48"
      transform="translate(605.829 174)">bitcoin<tspan x="197.333" y="0">address</tspan>
      <tspan fill="#111133" font-size="27" x="0" y="38">bc1qwqdg6squ</tspan>
      <tspan fill="#111133" font-size="27" x="219.38" y="38">sqdg6s795at9…kxsw</tspan>
      <tspan fill="#111133" font-size="27" x="527.067" y="38">vvzej</tspan>
      <tspan x="0" y="119">email</tspan>
      <tspan fill="#111133" font-size="27" x="0" y="158">satoshin@gmx.com</tspan>
      <tspan x="0" y="238">website</tspan>
      <tspan fill="#111133" font-size="27" x="0" y="276">https://bitcoin.org/</tspan>
      <tspan fill="#111133" font-size="27" x="0.00012207" y="374">.</tspan>
      <tspan fill="#111133" font-size="27" x="0" y="333">.</tspan>
      <tspan fill="#111133" font-size="27" x="0.00012207" y="417">.</tspan>
    </text>
    <path
      d="M589 612C577.678 612 568.5 602.939 568.5 591.762L568.5 334.208C568.5 323.031 559.322 313.97 548 313.97 559.322 313.97 568.5 304.909 568.5 293.732L568.5 149.238C568.5 138.061 577.679 129 589.001 129"
      stroke="#111133" stroke-width="2" stroke-linecap="round" stroke-linejoin="bevel" stroke-miterlimit="10"
      fill="none" fill-rule="evenodd" />
  </g>
</svg>